<svg width="60" height="60" viewBox="0 0 60 60" fill="none" xmlns="http://www.w3.org/2000/svg">
<g clip-path="url(#clip0_87_23)">
<path d="M32.568 15.5762L18.1445 29.9995L32.568 44.422L37.3296 39.6602L27.6699 29.9995L37.3296 20.3388L32.568 15.5762Z" fill="#FFDB4B"/>
<path d="M30.0009 0C13.4303 0.001875 0.001875 13.4304 0 30C0.00175781 46.5696 13.4303 59.9981 30.0009 60C46.5696 59.9981 59.998 46.5696 60 30C59.998 13.4304 46.5696 0.001875 30.0009 0ZM47.8811 47.8811C43.2979 52.4606 36.9908 55.286 30.0009 55.2879C23.0101 55.286 16.7021 52.4606 12.1188 47.8811C7.53844 43.2979 4.71293 36.9899 4.71211 30C4.71293 23.0093 7.53844 16.7023 12.1188 12.1189C16.7021 7.53856 23.0101 4.71305 30.0009 4.71211C36.9907 4.71305 43.2977 7.53856 47.8811 12.1189C52.4606 16.7021 55.287 23.0092 55.2879 30C55.287 36.9899 52.4606 43.2979 47.8811 47.8811Z" fill="#FFDB4B"/>
</g>
<defs>
<clipPath id="clip0_87_23">
<rect width="60" height="60" fill="white"/>
</clipPath>
</defs>
</svg>
