<svg width="55" height="55" viewBox="0 0 55 55" fill="none" xmlns="http://www.w3.org/2000/svg">
<path d="M54.7455 23.2714L54.4298 22.0683H28.3351V32.9304H43.9428C43.072 36.245 41.0921 39.1774 38.3195 41.2588C35.5473 43.3401 32.1427 44.45 28.6507 44.4112C24.094 44.3744 19.7159 42.6701 16.3749 39.6332C14.7326 38.0469 13.4257 36.1584 12.5289 34.0764C11.6322 31.9944 11.1633 29.7594 11.149 27.4993C11.202 22.9603 13.0357 18.6153 16.2698 15.3655C19.5635 12.3075 23.9382 10.6195 28.4754 10.6563C32.3612 10.6856 36.1025 12.1034 38.9975 14.6437L46.7136 6.87522C41.628 2.42851 35.0454 -0.0198555 28.2299 0.000493715C24.4805 -0.0213335 20.7637 0.680782 17.2913 2.0668C13.819 3.45278 10.6592 5.4955 7.99238 8.0783C2.91964 13.2422 0.0596704 20.1153 0.000922125 27.2831C-0.0577911 34.4511 2.68925 41.3681 7.67671 46.6111C10.44 49.3091 13.7242 51.4406 17.3374 52.8805C20.9507 54.3207 24.8204 55.0405 28.7209 54.9982C32.2577 55.024 35.7633 54.3458 39.0252 53.0046C42.2867 51.6633 45.2364 49.6872 47.6957 47.1954C52.5215 41.995 55.132 35.1808 54.991 28.1524C55.0289 26.5217 54.9468 24.8907 54.7455 23.2714Z" fill="black"/>
</svg>
