<svg width="30" height="30" viewBox="0 0 30 30" fill="none" xmlns="http://www.w3.org/2000/svg">
<path fill-rule="evenodd" clip-rule="evenodd" d="M2.3321 2.3321C5.44156 -0.777365 10.483 -0.777365 13.5924 2.3321L19.2225 7.96227C22.332 11.0718 22.332 16.1131 19.2225 19.2225C18.4452 20 17.1848 20 16.4075 19.2225C15.6302 18.4452 15.6302 17.1848 16.4075 16.4075C17.9623 14.8528 17.9623 12.332 16.4075 10.7773L10.7773 5.14717C9.22261 3.59246 6.7019 3.59246 5.14717 5.14717C3.59246 6.7019 3.59246 9.22261 5.14717 10.7773L6.55472 12.1849C7.3321 12.9622 7.33208 14.2226 6.55472 14.9999C5.77736 15.7773 4.517 15.7773 3.73964 14.9999L2.3321 13.5924C-0.777365 10.483 -0.777365 5.44156 2.3321 2.3321ZM13.5924 10.7774C14.3697 11.5547 14.3697 12.8151 13.5924 13.5924C12.0378 15.1473 12.0378 17.6679 13.5924 19.2225L19.2225 24.8528C20.7774 26.4075 23.298 26.4075 24.8528 24.8528C26.4075 23.298 26.4075 20.7774 24.8528 19.2225L23.4453 17.815C22.6678 17.0377 22.6678 15.7773 23.4453 14.9999C24.2226 14.2226 25.4829 14.2226 26.2604 14.9999L27.6679 16.4075C30.7774 19.5169 30.7774 24.5584 27.6679 27.6679C24.5584 30.7774 19.5169 30.7774 16.4075 27.6679L10.7774 22.0378C7.6679 18.9283 7.6679 13.8868 10.7774 10.7774C11.5547 9.99999 12.8151 9.99999 13.5924 10.7774Z" fill="#FFDB4B"/>
</svg>
