<svg width="55" height="55" viewBox="0 0 55 55" fill="none" xmlns="http://www.w3.org/2000/svg">
<path d="M39.5312 0H15.4688C6.875 0 0 6.875 0 15.4688V39.5312C0 48.125 6.875 55 15.4688 55H39.5312C48.125 55 55 48.125 55 39.5312V15.4688C55 6.875 48.125 0 39.5312 0ZM20.625 42.9688C20.625 44 19.9375 44.6875 18.9062 44.6875H12.0312C11 44.6875 10.3125 44 10.3125 42.9688V22.3438C10.3125 21.3125 11 20.625 12.0312 20.625H18.9062C19.9375 20.625 20.625 21.3125 20.625 22.3438V42.9688ZM15.4688 18.9062C12.5469 18.9062 10.3125 16.6719 10.3125 13.75C10.3125 10.8281 12.5469 8.59375 15.4688 8.59375C18.3906 8.59375 20.625 10.8281 20.625 13.75C20.625 16.6719 18.3906 18.9062 15.4688 18.9062ZM44.6875 42.9688C44.6875 44 44 44.6875 42.9688 44.6875H37.8125C36.7812 44.6875 36.0938 44 36.0938 42.9688V36.9531V35.2344V31.7969C36.0938 30.4219 34.8906 29.2188 33.5156 29.2188C32.1406 29.2188 30.9375 30.4219 30.9375 31.7969V35.2344V36.9531V42.9688C30.9375 44 30.25 44.6875 29.2188 44.6875H24.0625C23.0312 44.6875 22.3438 44 22.3438 42.9688V22.3438C22.3438 21.3125 23.0312 20.625 24.0625 20.625H30.9375C31.4531 20.625 31.7969 20.7969 32.1406 21.1406C33.1719 20.7969 34.2031 20.625 35.2344 20.625C40.3906 20.625 44.6875 24.9219 44.6875 30.0781V42.9688Z" fill="black"/>
</svg>
