<svg width="30" height="30" viewBox="0 0 30 30" fill="none" xmlns="http://www.w3.org/2000/svg">
<path d="M19.4452 18.1846L18.8759 18.784C18.8759 18.784 17.5226 20.2087 13.8289 16.3199C10.1351 12.431 11.4884 11.0063 11.4884 11.0063L11.8469 10.6289C12.7301 9.69905 12.8134 8.20621 12.0428 7.11638L10.4666 4.88701C9.51285 3.53813 7.66995 3.35994 6.57681 4.5108L4.61481 6.57643C4.07279 7.14708 3.70956 7.88681 3.75361 8.70743C3.8663 10.8068 4.76339 15.3238 9.7692 20.594C15.0776 26.1828 20.0585 26.4049 22.0954 26.2039C22.7396 26.1403 23.2999 25.7929 23.7514 25.3175L25.5271 23.448C26.7257 22.1861 26.3877 20.0228 24.8541 19.14L22.466 17.7654C21.459 17.1858 20.2322 17.356 19.4452 18.1846Z" fill="#1C274C"/>
<path d="M16.5744 2.34979C16.6571 1.83868 17.1402 1.49197 17.6514 1.5747C17.683 1.58077 17.7849 1.59979 17.8381 1.61167C17.9449 1.63543 18.0936 1.67199 18.2791 1.72603C18.6501 1.83408 19.1684 2.01209 19.7904 2.29725C21.0357 2.8682 22.693 3.86695 24.4127 5.5867C26.1325 7.30645 27.1312 8.96372 27.7021 10.2091C27.9874 10.8311 28.1654 11.3493 28.2734 11.7203C28.3274 11.9058 28.364 12.0546 28.3877 12.1613C28.3996 12.2146 28.4084 12.2574 28.4144 12.2891L28.4216 12.3281C28.5042 12.8391 28.1607 13.3424 27.6496 13.4251C27.14 13.5076 26.6599 13.1625 26.5751 12.6539C26.5725 12.6401 26.5652 12.6035 26.5576 12.5689C26.5421 12.4996 26.5155 12.3899 26.4732 12.2447C26.3886 11.9542 26.2417 11.5226 25.9977 10.9905C25.5105 9.92759 24.6342 8.45987 23.0869 6.91253C21.5396 5.3652 20.0719 4.48897 19.009 4.00168C18.4769 3.75773 18.0452 3.61082 17.7547 3.52622C17.6096 3.48393 17.4271 3.44204 17.3579 3.42663C16.8491 3.34184 16.4919 2.85944 16.5744 2.34979Z" fill="#FFDB4B"/>
<path fill-rule="evenodd" clip-rule="evenodd" d="M16.8566 6.66067C16.9989 6.16282 17.5177 5.87454 18.0156 6.01678L17.7581 6.91822C18.0156 6.01678 18.0156 6.01678 18.0156 6.01678L18.0175 6.0173L18.0194 6.01785L18.0235 6.01907L18.0332 6.02197L18.058 6.02967C18.0767 6.03569 18.1004 6.04354 18.1284 6.0535C18.1845 6.07343 18.2587 6.10175 18.3497 6.14075C18.5319 6.2188 18.7806 6.33933 19.0864 6.52022C19.6981 6.88232 20.5334 7.48379 21.5146 8.465C22.4959 9.44623 23.0972 10.2815 23.4594 10.8933C23.6402 11.1989 23.7607 11.4478 23.8389 11.6299C23.8779 11.7209 23.9062 11.7951 23.9261 11.8512C23.9361 11.8793 23.9439 11.9028 23.95 11.9217L23.9576 11.9464L23.9605 11.9561L23.9617 11.9602L23.9622 11.9622C23.9622 11.9622 23.9629 11.964 23.0614 12.2215L23.9629 11.964C24.1051 12.4618 23.8167 12.9807 23.319 13.1229C22.8254 13.2639 22.311 12.9818 22.1636 12.4917L22.159 12.4782C22.1524 12.4594 22.1386 12.4225 22.1155 12.3685C22.0692 12.2605 21.9854 12.084 21.8459 11.8483C21.5671 11.3773 21.0637 10.6658 20.1887 9.79083C19.3139 8.91589 18.6022 8.41252 18.1314 8.1338C17.8956 7.99428 17.7191 7.9104 17.6111 7.86415C17.5571 7.84102 17.5201 7.82722 17.5014 7.82055L17.4879 7.81594C16.9979 7.66859 16.7156 7.15428 16.8566 6.66067Z" fill="#FFDB4B"/>
</svg>
