<svg width="60" height="60" viewBox="0 0 60 60" fill="none" xmlns="http://www.w3.org/2000/svg">
<g clip-path="url(#clip0_96_99)">
<path d="M27.8095 20.5804C20.8394 16.6819 9.65219 10.4219 -7.70003 0.705971C-8.86992 -0.0666476 -10.2159 -0.167898 -11.3789 0.225736L18.3926 29.9973L27.8095 20.5804Z" fill="#32BBFF"/>
<path d="M-11.3793 0.225586C-11.5973 0.299414 -11.8094 0.388477 -12.0123 0.496055C-13.2965 1.19074 -14.2402 2.5275 -14.2402 4.21817V55.7761C-14.2402 57.4668 -13.2966 58.8035 -12.0123 59.4981C-11.8098 59.6055 -11.5978 59.695 -11.38 59.7693L18.3922 29.9971L-11.3793 0.225586Z" fill="#32BBFF"/>
<path d="M18.3914 29.9971L-11.3809 59.7692C-10.2175 60.1658 -8.87152 60.0722 -7.70128 59.2884C9.12664 49.8653 20.1878 43.6794 27.2385 39.7478C27.4348 39.6375 27.6271 39.5297 27.8172 39.4229L18.3914 29.9971Z" fill="#32BBFF"/>
<path d="M-14.2402 29.998V55.777C-14.2402 57.4677 -13.2966 58.8044 -12.0123 59.499C-11.8098 59.6065 -11.5978 59.6959 -11.38 59.7702L18.3922 29.998H-14.2402Z" fill="#2C9FD9"/>
<path d="M-7.69991 0.706397C-9.08917 -0.210949 -10.7275 -0.184816 -12.0117 0.496748L17.9409 30.4495L27.8095 20.5809C20.8395 16.6824 9.65231 10.4223 -7.69991 0.706397Z" fill="#29CC5E"/>
<path d="M17.9411 29.5459L-12.0117 59.4985C-10.7273 60.1799 -9.08917 60.2193 -7.69991 59.2888C9.12801 49.8658 20.1891 43.6799 27.2398 39.7483C27.4361 39.638 27.6284 39.5302 27.8185 39.4234L17.9411 29.5459Z" fill="#D93F21"/>
<path d="M40.2399 29.9978C40.2399 28.5693 39.5191 27.1277 38.0905 26.3282C38.0905 26.3282 35.4187 24.8375 27.2293 20.2568L17.4883 29.9978L27.2388 39.7484C35.3383 35.2007 38.0903 33.6673 38.0903 33.6673C39.5191 32.868 40.2399 31.4264 40.2399 29.9978Z" fill="#FFD500"/>
<path d="M38.0905 33.6677C39.5191 32.8682 40.2399 31.4266 40.2399 29.998H17.4883L27.2388 39.7487C35.3384 35.2011 38.0905 33.6677 38.0905 33.6677Z" fill="#FFAA00"/>
</g>
<defs>
<clipPath id="clip0_96_99">
<rect width="60" height="60" fill="white"/>
</clipPath>
</defs>
</svg>
